<svg width="33" height="31" viewBox="0 0 33 31" fill="none" xmlns="http://www.w3.org/2000/svg">
<path fill-rule="evenodd" clip-rule="evenodd" d="M22.3098 31V18.9952H26.3908L27.0014 14.3174H22.3082V11.3305C22.3082 9.9758 22.6896 9.052 24.658 9.052H27.1662V4.867C25.9515 4.73935 24.7306 4.67725 23.509 4.681C19.8925 4.681 17.4172 6.86185 17.4172 10.8655V14.3174H13.3236V18.9952H17.4157V31H2.49942C1.54194 31 0.766541 30.2343 0.766541 29.2888V1.7112C0.766541 0.7657 1.54194 0 2.49942 0H30.4264C31.3838 0 32.1592 0.7657 32.1592 1.7112V29.2888C32.1592 30.2343 31.3838 31 30.4264 31H22.3098Z" fill="black"/>
</svg>
