<svg width="32" height="31" viewBox="0 0 32 31" fill="none" xmlns="http://www.w3.org/2000/svg">
<path d="M23.2267 0H8.7378C6.49696 0.00236707 4.34858 0.882452 2.76407 2.44715C1.17955 4.01184 0.288316 6.13334 0.285919 8.34615V22.6538C0.288316 24.8667 1.17955 26.9882 2.76407 28.5529C4.34858 30.1175 6.49696 30.9976 8.7378 31H23.2267C25.4676 30.9976 27.616 30.1175 29.2005 28.5529C30.785 26.9882 31.6762 24.8667 31.6786 22.6538V8.34615C31.6762 6.13334 30.785 4.01184 29.2005 2.44715C27.616 0.882452 25.4676 0.00236707 23.2267 0ZM15.9823 22.6538C14.5495 22.6538 13.1488 22.2343 11.9575 21.4482C10.7661 20.6621 9.83757 19.5449 9.28925 18.2377C8.74094 16.9305 8.59747 15.4921 8.877 14.1044C9.15653 12.7166 9.8465 11.442 10.8597 10.4415C11.8728 9.44098 13.1637 8.75965 14.5689 8.48361C15.9742 8.20758 17.4309 8.34925 18.7546 8.89071C20.0784 9.43217 21.2098 10.3491 22.0058 11.5255C22.8019 12.702 23.2267 14.0851 23.2267 15.5C23.2247 17.3967 22.4608 19.2152 21.1027 20.5564C19.7445 21.8975 17.903 22.6519 15.9823 22.6538ZM25.0379 8.34615C24.6797 8.34615 24.3295 8.24126 24.0317 8.04474C23.7338 7.84823 23.5017 7.56891 23.3646 7.24211C23.2275 6.91531 23.1917 6.55571 23.2615 6.20878C23.3314 5.86185 23.5039 5.54318 23.7572 5.29306C24.0105 5.04294 24.3332 4.8726 24.6845 4.8036C25.0359 4.73459 25.4 4.77 25.7309 4.90537C26.0619 5.04073 26.3447 5.26997 26.5437 5.56408C26.7428 5.85819 26.849 6.20397 26.849 6.55769C26.849 7.03202 26.6582 7.48692 26.3185 7.82233C25.9789 8.15773 25.5182 8.34615 25.0379 8.34615ZM20.8119 15.5C20.8119 16.4433 20.5287 17.3653 19.998 18.1496C19.4673 18.9339 18.713 19.5452 17.8305 19.9062C16.948 20.2672 15.9769 20.3616 15.0401 20.1776C14.1032 19.9936 13.2426 19.5393 12.5672 18.8724C11.8918 18.2054 11.4318 17.3556 11.2454 16.4304C11.0591 15.5053 11.1547 14.5464 11.5203 13.6749C11.8858 12.8034 12.5048 12.0586 13.2991 11.5345C14.0933 11.0105 15.0271 10.7308 15.9823 10.7308C17.2632 10.7308 18.4916 11.2332 19.3973 12.1276C20.3031 13.022 20.8119 14.2351 20.8119 15.5Z" fill="black"/>
</svg>
