<svg width="32" height="31" viewBox="0 0 32 31" fill="none" xmlns="http://www.w3.org/2000/svg">
<path d="M20.767 0H11.1357C2.33949 0 0.247162 2.06615 0.247162 10.7368V20.2476C0.247162 28.9323 2.32379 31 11.12 31H20.7513C29.546 31 31.6399 28.9493 31.6399 20.2631V10.7523C31.6399 2.06615 29.5632 0 20.767 0ZM25.5905 22.1185H23.3004C22.434 22.1185 22.1734 21.4256 20.6195 19.8911C19.2633 18.6 18.6904 18.4388 18.3466 18.4388C17.8726 18.4388 17.7423 18.5674 17.7423 19.2138V21.2474C17.7423 21.7976 17.5618 22.12 16.1068 22.12C14.6946 22.0263 13.3252 21.6027 12.1114 20.884C10.8976 20.1653 9.874 19.1721 9.12502 17.9862C7.34689 15.8007 6.10966 13.2357 5.51172 10.495C5.51172 10.1556 5.642 9.8487 6.29654 9.8487H8.58506C9.17368 9.8487 9.38558 10.1075 9.61631 10.7043C10.7276 13.9345 12.6237 16.7431 13.3929 16.7431C13.6879 16.7431 13.8167 16.6145 13.8167 15.8875V12.5612C13.7193 11.0437 12.9031 10.9151 12.9031 10.3664C12.9136 10.2217 12.9808 10.0867 13.0904 9.99003C13.2 9.89338 13.3434 9.84269 13.4902 9.8487H17.0878C17.5791 9.8487 17.7423 10.0905 17.7423 10.6718V15.1606C17.7423 15.6457 17.9542 15.8069 18.1018 15.8069C18.3969 15.8069 18.6245 15.6457 19.1644 15.1125C20.3242 13.7159 21.2717 12.1599 21.9772 10.4935C22.0493 10.2933 22.1858 10.122 22.3657 10.0055C22.5457 9.88913 22.7593 9.83404 22.9739 9.8487H25.264C25.9499 9.8487 26.0959 10.1882 25.9499 10.6718C25.1172 12.5138 24.0869 14.2624 22.8766 15.8875C22.6302 16.2595 22.5313 16.4532 22.8766 16.8888C23.1042 17.2282 23.9063 17.8901 24.4462 18.5194C25.2309 19.2923 25.8825 20.1865 26.3753 21.1668C26.5715 21.7961 26.2435 22.1185 25.5905 22.1185Z" fill="black"/>
</svg>
