<svg width="33" height="31" viewBox="0 0 33 31" fill="none" xmlns="http://www.w3.org/2000/svg">
<path d="M16.4154 25.9706L8.8577 30.7097C8.52383 30.9309 8.17478 31.0257 7.81055 30.9941C7.44632 30.9625 7.12762 30.8361 6.85445 30.6149C6.58128 30.3938 6.36881 30.117 6.21705 29.7846C6.06529 29.4523 6.03494 29.0814 6.126 28.6719L8.12925 19.7149L1.43657 13.6962C1.13304 13.4118 0.943645 13.0877 0.868371 12.7237C0.793098 12.3597 0.815558 12.0046 0.935753 11.6583C1.05716 11.3108 1.23928 11.0264 1.48209 10.8053C1.72491 10.5841 2.05879 10.4419 2.48372 10.3788L11.3162 9.57309L14.7309 1.1374C14.8826 0.758266 15.1182 0.473916 15.4375 0.28435C15.7568 0.0947833 16.0828 0 16.4154 0C16.7493 0 17.0753 0.0947833 17.3934 0.28435C17.7115 0.473916 17.947 0.758266 18.1 1.1374L21.5146 9.57309L30.3471 10.3788C30.7721 10.4419 31.1059 10.5841 31.3488 10.8053C31.5916 11.0264 31.7737 11.3108 31.8951 11.6583C32.0165 12.0059 32.0396 12.3616 31.9643 12.7256C31.889 13.0895 31.699 13.4131 31.3943 13.6962L24.7016 19.7149L26.7049 28.6719C26.7959 29.0826 26.7656 29.4542 26.6138 29.7865C26.462 30.1189 26.2496 30.3951 25.9764 30.6149C25.7032 30.8361 25.3845 30.9625 25.0203 30.9941C24.6561 31.0257 24.307 30.9309 23.9731 30.7097L16.4154 25.9706Z" fill="#FFEC44"/>
</svg>
