<svg width="33" height="31" viewBox="0 0 33 31" fill="none" xmlns="http://www.w3.org/2000/svg">
<path d="M7.88247 10.3333V7.38095C7.88247 5.4234 8.79506 3.54603 10.4195 2.16183C12.0439 0.777634 14.2471 0 16.5443 0C18.8416 0 21.0447 0.777634 22.6692 2.16183C24.2936 3.54603 25.2062 5.4234 25.2062 7.38095V10.3333H30.4033C30.8627 10.3333 31.3033 10.4889 31.6282 10.7657C31.9531 11.0425 32.1356 11.418 32.1356 11.8095V29.5238C32.1356 29.9153 31.9531 30.2908 31.6282 30.5676C31.3033 30.8445 30.8627 31 30.4033 31H2.68537C2.22592 31 1.78528 30.8445 1.4604 30.5676C1.13552 30.2908 0.953003 29.9153 0.953003 29.5238V11.8095C0.953003 11.418 1.13552 11.0425 1.4604 10.7657C1.78528 10.4889 2.22592 10.3333 2.68537 10.3333H7.88247ZM7.88247 13.2857H4.41774V28.0476H28.6709V13.2857H25.2062V16.2381H21.7414V13.2857H11.3472V16.2381H7.88247V13.2857ZM11.3472 10.3333H21.7414V7.38095C21.7414 6.20642 21.1939 5.08 20.2192 4.24948C19.2446 3.41896 17.9227 2.95238 16.5443 2.95238C15.166 2.95238 13.8441 3.41896 12.8694 4.24948C11.8948 5.08 11.3472 6.20642 11.3472 7.38095V10.3333Z" fill="black"/>
</svg>
