<svg width="32" height="32" viewBox="0 0 32 32" fill="none" xmlns="http://www.w3.org/2000/svg">
<path d="M28.7573 31.4583L17.8434 20.6083C16.9772 21.2972 15.9811 21.8426 14.8551 22.2445C13.729 22.6463 12.5308 22.8472 11.2604 22.8472C8.11326 22.8472 5.45003 21.7634 3.27071 19.5957C1.09139 17.428 0.00115491 14.7803 0 11.6528C0 8.52408 1.09024 5.87645 3.27071 3.7099C5.45118 1.54334 8.11441 0.459492 11.2604 0.458344C14.4075 0.458344 17.0708 1.5422 19.2501 3.7099C21.4294 5.8776 22.5196 8.52523 22.5208 11.6528C22.5208 12.9158 22.3187 14.107 21.9145 15.2264C21.5102 16.3458 20.9617 17.3361 20.2687 18.1972L31.1826 29.0472L28.7573 31.4583ZM11.2604 19.4028C13.4259 19.4028 15.2668 18.649 16.7832 17.1415C18.2996 15.634 19.0572 13.8044 19.056 11.6528C19.056 9.50001 18.2978 7.66986 16.7814 6.16234C15.265 4.65482 13.4247 3.90164 11.2604 3.90279C9.09493 3.90279 7.254 4.65655 5.7376 6.16407C4.2212 7.67158 3.46358 9.50116 3.46474 11.6528C3.46474 13.8056 4.22294 15.6357 5.73934 17.1432C7.25573 18.6508 9.09609 19.4039 11.2604 19.4028Z" fill="black"/>
</svg>
