<svg width="32" height="32" viewBox="0 0 32 32" fill="none" xmlns="http://www.w3.org/2000/svg">
<path d="M15.5913 0.458344C17.6588 0.458344 19.6417 1.27486 21.1037 2.72827C22.5656 4.18167 23.387 6.15292 23.387 8.20834C23.387 10.2638 22.5656 12.235 21.1037 13.6884C19.6417 15.1418 17.6588 15.9583 15.5913 15.9583C13.5238 15.9583 11.5409 15.1418 10.0789 13.6884C8.61698 12.235 7.79565 10.2638 7.79565 8.20834C7.79565 6.15292 8.61698 4.18167 10.0789 2.72827C11.5409 1.27486 13.5238 0.458344 15.5913 0.458344ZM15.5913 4.33334C14.5575 4.33334 13.5661 4.7416 12.8351 5.4683C12.1041 6.19501 11.6935 7.18063 11.6935 8.20834C11.6935 9.23606 12.1041 10.2217 12.8351 10.9484C13.5661 11.6751 14.5575 12.0833 15.5913 12.0833C16.6251 12.0833 17.6165 11.6751 18.3475 10.9484C19.0785 10.2217 19.4891 9.23606 19.4891 8.20834C19.4891 7.18063 19.0785 6.19501 18.3475 5.4683C17.6165 4.7416 16.6251 4.33334 15.5913 4.33334ZM15.5913 17.8958C20.7949 17.8958 31.1826 20.4727 31.1826 25.6458V31.4583H0V25.6458C0 20.4727 10.3877 17.8958 15.5913 17.8958ZM15.5913 21.5771C9.80304 21.5771 3.70294 24.4058 3.70294 25.6458V27.7771H27.4797V25.6458C27.4797 24.4058 21.3796 21.5771 15.5913 21.5771Z" fill="black"/>
</svg>
