<svg width="43" height="40" viewBox="0 0 43 40" fill="none" xmlns="http://www.w3.org/2000/svg">
<path d="M21.4897 30.8924C18.3163 30.8924 15.6109 29.8163 13.3734 27.6641C11.136 25.5119 10.018 22.9104 10.0195 19.8594C10.0195 16.8069 11.1383 14.2046 13.3757 12.0524C15.6131 9.90027 18.3178 8.82492 21.4897 8.82639C24.6631 8.82639 27.3685 9.90248 29.6059 12.0546C31.8434 14.2068 32.9613 16.8084 32.9598 19.8594C32.9598 22.9118 31.8411 25.5141 29.6036 27.6663C27.3662 29.8185 24.6615 30.8938 21.4897 30.8924ZM5.4315 39.7187C4.16978 39.7187 3.0893 39.2863 2.19004 38.4213C1.29078 37.5563 0.841919 36.5177 0.843449 35.3056V26.4792H5.4315V35.3056H14.6076V39.7187H5.4315ZM28.3717 39.7187V35.3056H37.5478V26.4792H42.1359V35.3056C42.1359 36.5192 41.6863 37.5585 40.787 38.4235C39.8878 39.2885 38.808 39.7202 37.5478 39.7187H28.3717ZM0.843449 13.2396V4.4132C0.843449 3.19957 1.29308 2.16026 2.19234 1.29528C3.09159 0.43029 4.17131 -0.00146732 5.4315 3.74635e-06H14.6076V4.4132H5.4315V13.2396H0.843449ZM37.5478 13.2396V4.4132H28.3717V3.74635e-06H37.5478C38.8096 3.74635e-06 39.89 0.432497 40.7893 1.29748C41.6886 2.16247 42.1374 3.20104 42.1359 4.4132V13.2396H37.5478Z" fill="black"/>
</svg>
