<svg width="42" height="40" viewBox="0 0 42 40" fill="none" xmlns="http://www.w3.org/2000/svg">
<path fill-rule="evenodd" clip-rule="evenodd" d="M18.8161 39.6912C8.53431 38.5522 0.550415 30.1318 0.550415 19.9113C0.550415 8.91429 9.79373 0 21.1966 0C32.5996 0 41.8429 8.91429 41.8429 19.9113C41.8429 30.1795 35.0647 29.3353 29.2776 28.6125C25.937 28.1964 22.9289 27.822 21.7376 29.6439C20.922 30.8904 21.8036 32.4435 22.8834 33.4848C23.2042 33.7941 23.4586 34.1614 23.6322 34.5655C23.8058 34.9697 23.8951 35.4029 23.8951 35.8403C23.8951 36.2778 23.8058 36.711 23.6322 37.1151C23.4586 37.5193 23.2042 37.8865 22.8834 38.1958C21.8036 39.2372 20.3336 39.8604 18.8161 39.6912ZM19.3075 9.95565C19.3075 10.7478 18.9812 11.5074 18.4004 12.0676C17.8197 12.6277 17.0319 12.9423 16.2106 12.9423C15.3892 12.9423 14.6015 12.6277 14.0207 12.0676C13.4399 11.5074 13.1136 10.7478 13.1136 9.95565C13.1136 9.16353 13.4399 8.40385 14.0207 7.84373C14.6015 7.28362 15.3892 6.96895 16.2106 6.96895C17.0319 6.96895 17.8197 7.28362 18.4004 7.84373C18.9812 8.40385 19.3075 9.16353 19.3075 9.95565ZM9.84122 21.9024C10.6626 21.9024 11.4503 21.5878 12.0311 21.0276C12.6119 20.4675 12.9382 19.7078 12.9382 18.9157C12.9382 18.1236 12.6119 17.3639 12.0311 16.8038C11.4503 16.2437 10.6626 15.929 9.84122 15.929C9.01986 15.929 8.23214 16.2437 7.65135 16.8038C7.07057 17.3639 6.74428 18.1236 6.74428 18.9157C6.74428 19.7078 7.07057 20.4675 7.65135 21.0276C8.23214 21.5878 9.01986 21.9024 9.84122 21.9024ZM32.5521 21.9024C33.3734 21.9024 34.1611 21.5878 34.7419 21.0276C35.3227 20.4675 35.649 19.7078 35.649 18.9157C35.649 18.1236 35.3227 17.3639 34.7419 16.8038C34.1611 16.2437 33.3734 15.929 32.5521 15.929C31.7307 15.929 30.943 16.2437 30.3622 16.8038C29.7814 17.3639 29.4551 18.1236 29.4551 18.9157C29.4551 19.7078 29.7814 20.4675 30.3622 21.0276C30.943 21.5878 31.7307 21.9024 32.5521 21.9024ZM26.3582 12.9423C26.7649 12.9423 27.1676 12.8651 27.5433 12.715C27.9191 12.5649 28.2605 12.3449 28.5481 12.0676C28.8356 11.7902 29.0638 11.461 29.2194 11.0986C29.375 10.7362 29.4551 10.3479 29.4551 9.95565C29.4551 9.56343 29.375 9.17505 29.2194 8.81269C29.0638 8.45033 28.8356 8.12107 28.5481 7.84373C28.2605 7.56639 27.9191 7.3464 27.5433 7.1963C27.1676 7.0462 26.7649 6.96895 26.3582 6.96895C25.5368 6.96895 24.7491 7.28362 24.1683 7.84373C23.5875 8.40385 23.2613 9.16353 23.2613 9.95565C23.2613 10.7478 23.5875 11.5074 24.1683 12.0676C24.7491 12.6277 25.5368 12.9423 26.3582 12.9423Z" fill="black"/>
</svg>
