<svg width="42" height="40" viewBox="0 0 42 40" fill="none" xmlns="http://www.w3.org/2000/svg">
<path d="M21.2038 31.9957C23.7846 31.9957 25.9786 31.0299 27.7859 29.0984C29.5931 27.1669 30.496 24.8228 30.4946 22.066C30.4946 19.3077 29.591 16.9629 27.7838 15.0313C25.9766 13.0998 23.7832 12.1348 21.2038 12.1363C18.6231 12.1363 16.4291 13.102 14.6218 15.0336C12.8146 16.9651 11.9117 19.3092 11.913 22.066C11.913 24.8242 12.8167 27.1691 14.6239 29.1006C16.4311 31.0321 18.6244 31.9971 21.2038 31.9957ZM4.68687 39.7187C3.55132 39.7187 2.57889 39.2863 1.76955 38.4213C0.960222 37.5563 0.556244 36.5177 0.557621 35.3056V8.8264C0.557621 7.61277 0.962287 6.57346 1.77162 5.70848C2.58095 4.84349 3.5527 4.41174 4.68687 4.41321H11.1904L13.7712 1.4343C14.1497 0.956205 14.606 0.597265 15.14 0.357482C15.6741 0.117698 16.2322 -0.00145761 16.8145 1.34549e-05H25.5891C26.1741 1.34549e-05 26.7336 0.119905 27.2676 0.359689C27.8017 0.599472 28.2573 0.957676 28.6344 1.4343L31.2173 4.41321H37.7208C38.8564 4.41321 39.8288 4.8457 40.6381 5.71068C41.4475 6.57567 41.8514 7.61424 41.8501 8.8264V35.3056C41.8501 36.5192 41.4454 37.5585 40.6361 38.4235C39.8267 39.2885 38.855 39.7202 37.7208 39.7187H4.68687Z" fill="black"/>
</svg>
