<svg width="42" height="40" viewBox="0 0 42 40" fill="none" xmlns="http://www.w3.org/2000/svg">
<path d="M33.5844 8.82639H8.8089V0H33.5844V8.82639ZM33.5844 20.9627C34.1693 20.9627 34.66 20.7508 35.0564 20.3272C35.4529 19.9035 35.6504 19.3798 35.649 18.7561C35.649 18.1309 35.4508 17.6064 35.0544 17.1828C34.658 16.7591 34.168 16.548 33.5844 16.5495C32.9994 16.5495 32.5087 16.7613 32.1123 17.185C31.7159 17.6086 31.5184 18.1323 31.5198 18.7561C31.5198 19.3813 31.718 19.9057 32.1144 20.3294C32.5108 20.753 33.0008 20.9641 33.5844 20.9627ZM29.4551 35.3056V26.4792H12.9381V35.3056H29.4551ZM33.5844 39.7188H8.8089V30.8924H0.550415V17.6528C0.550415 15.7772 1.1526 14.2046 2.35696 12.9351C3.56132 11.6655 5.02376 11.0315 6.74428 11.033H35.649C37.4039 11.033 38.8753 11.6678 40.0632 12.9373C41.251 14.2068 41.8442 15.7786 41.8429 17.6528V30.8924H33.5844V39.7188Z" fill="black"/>
</svg>
