<svg width="43" height="40" viewBox="0 0 43 40" fill="none" xmlns="http://www.w3.org/2000/svg">
<path d="M32.9598 14.8945V3.3099C32.9598 2.43206 32.7181 1.59017 32.2879 0.969447C31.8577 0.348721 31.2742 0 30.6658 0H3.13747C2.52906 0 1.94556 0.348721 1.51535 0.969447C1.08514 1.59017 0.843445 2.43206 0.843445 3.3099V36.4089C0.843445 37.2867 1.08514 38.1286 1.51535 38.7493C1.94556 39.37 2.52906 39.7188 3.13747 39.7188H30.6658C31.2742 39.7188 31.8577 39.37 32.2879 38.7493C32.7181 38.1286 32.9598 37.2867 32.9598 36.4089V24.8242L42.1359 38.0638V1.65495L32.9598 14.8945ZM26.0777 23.1693H7.72552V16.5495H26.0777V23.1693Z" fill="black"/>
</svg>
